<?xml version="1.0" standalone="no"?>
<!DOCTYPE svg PUBLIC "-//W3C//DTD SVG 20010904//EN"
 "http://www.w3.org/TR/2001/REC-SVG-20010904/DTD/svg10.dtd">
<svg version="1.0" xmlns="http://www.w3.org/2000/svg"
 width="200.000000pt" height="200.000000pt" viewBox="0 0 200.000000 200.000000"
 preserveAspectRatio="xMidYMid meet">
<metadata>
Created by potrace 1.13, written by Peter Selinger 2001-2015
</metadata>
<g transform="translate(0.000000,200.000000) scale(0.100000,-0.100000)"
fill="#000000" stroke="none">
<path d="M803 1805 c-132 -37 -225 -112 -275 -223 -27 -59 -32 -83 -39 -201
-5 -74 -10 -136 -12 -138 -2 -2 -42 -6 -88 -10 -46 -3 -87 -11 -91 -17 -9 -13
-10 -78 -2 -100 5 -13 23 -16 89 -16 46 0 86 -4 89 -9 3 -4 9 -173 12 -374 6
-321 9 -367 23 -373 26 -11 273 -16 316 -7 l39 9 -3 367 -3 367 99 0 c133 0
150 -11 192 -121 18 -45 30 -87 28 -93 -3 -6 -70 -161 -151 -344 -80 -182
-146 -334 -146 -337 0 -3 56 -5 124 -5 l124 0 83 201 83 201 79 -201 79 -201
124 0 c68 0 124 2 124 5 0 11 -334 863 -352 898 -32 63 -98 122 -150 135 -26
7 -115 12 -197 12 l-151 0 0 48 c0 26 -14 97 -30 157 -44 163 -40 204 27 231
44 19 83 11 114 -22 20 -21 24 -37 25 -92 1 -79 17 -96 102 -112 149 -28 250
47 240 180 -6 85 -56 138 -163 175 -70 24 -291 30 -362 10z"/>
<path d="M497 3 c277 -2 729 -2 1005 0 277 1 51 2 -502 2 -553 0 -779 -1 -503
-2z"/>
</g>
</svg>
